<svg xmlns="http://www.w3.org/2000/svg" width="192" height="192" viewBox="0 0 512 512">
  <defs>
    <linearGradient id="bg" x1="0%" y1="0%" x2="100%" y2="100%">
      <stop offset="0%" style="stop-color:#8a4cfc"/>
      <stop offset="100%" style="stop-color:#bd9dff"/>
    </linearGradient>
    <linearGradient id="accent" x1="0%" y1="0%" x2="100%" y2="100%">
      <stop offset="0%" style="stop-color:#00cffc"/>
      <stop offset="100%" style="stop-color:#00a0c8"/>
    </linearGradient>
  </defs>
  <rect width="512" height="512" rx="112" fill="url(#bg)"/>
  <path d="M196 140h120v140c0 44-27 80-60 80s-60-36-60-80V140z" fill="white" opacity="0.95"/>
  <path d="M196 160h-30c-22 0-40 18-40 40v10c0 33 27 60 60 60h10" fill="none" stroke="white" stroke-width="18" stroke-linecap="round" opacity="0.8"/>
  <path d="M316 160h30c22 0 40 18 40 40v10c0 33-27 60-60 60h-10" fill="none" stroke="white" stroke-width="18" stroke-linecap="round" opacity="0.8"/>
  <rect x="240" y="350" width="32" height="40" rx="4" fill="white" opacity="0.8"/>
  <rect x="206" y="382" width="100" height="20" rx="10" fill="white" opacity="0.8"/>
  <path d="M256 180l12 24 27 4-20 19 5 27-24-13-24 13 5-27-20-19 27-4z" fill="url(#accent)"/>
</svg>
